/* XPM */
static char *dbab726d511546d4df27fc8107497e00UuAL6nwWrJszeIt1[] = {
/* columns rows colors chars-per-pixel */
"96 96 31 1 ",
"  c None",
". c #030301",
"X c #131A06",
"o c #2B1A18",
"O c #22360A",
"+ c #363023",
"@ c #553231",
"# c #284804",
"$ c #3A5C12",
"% c #4D751F",
"& c #4A4E25",
"* c #567F20",
"= c #624D4A",
"- c #6B6D6F",
"; c #8B4F4F",
": c #B86769",
"> c #DA797C",
", c #659024",
"< c #AAF80A",
"1 c #92C332",
"2 c #8E866A",
"3 c #A6D549",
"4 c #C2F855",
"5 c #7B96B6",
"6 c #9D9990",
"7 c #F19FA0",
"8 c #D9F69F",
"9 c #C6C6B7",
"0 c #95B6DA",
"q c #B4D1EE",
"w c #F3FDE0",
/* pixels */
"                                                                                                ",
"                                                                                                ",
"                                                                                                ",
"                                                                           .=wwwww..            ",
"                                                                        >.w<<11111<<w.o         ",
"                                                                       @-w11111%%%111892@       ",
"                                                                    >;643111111%%%%%%,118o      ",
"                                                                   >X81,%,X....,,%%%%%%%,4.     ",
"                                                                  >.<,%%%qqqwwqw=.,%%%%%%*w;    ",
"                                                                 >.<%%%%%......0qq5,*%%%%%18.   ",
"                                                                >;<%%%%%%%%%%%%$X0q0$%%%%%%,w   ",
"                                                                ;8%%%%%,,,,,,,,,*$0q+*%%%%%%1.  ",
"                                                              >>X,%%%%...,,,,,,,,,$qq%%%%%%%%w> ",
"                                                              >.<%%%wwwww<%,,,,,,,%.0X%%%%%%%#> ",
"                                                              .<%%%wwwwwwwO,,,,,,,,%X$%%%%%%%$.>",
"                                                             >w*%%.ww#%www<O,,,,,,,,**%%%%%%%#.>",
"                                                             .1%%%.ww#,www<%,,,..,,,,*%%%%%%%#.>",
"                                                            ><%%%%.<wwwwww<%.<<ww<.,,%%%%%%%$#.>",
"                                                           >.%%%%%$<wwwww<,X<wwwwww.*%%%%%%%$#.>",
"                                                          >9<%%,,$,$<<<<<,.14wwwwww<$%%%%%%%$#.>",
"                                                          @3$XXX#,X%$OX.O1X<www1#ww<$%%%%%%$$%o>",
"                                                         ;6#*##$,*,$O*#31,O*www32ww<$%%%%%%$#%> ",
"                                                         6$%O###*$,,,$61,*%#<wwwww4.%%%%%%%$#%> ",
"                                                        o3#OO###%%X,,%1,#,**#O<<<<O%%%%%%%%$#.> ",
"                                                       >w$#X#####41,,#.$,,,$,%$$$$%%%%%%%%$$$.> ",
"                                                      >.1$#X######Ow,,,,,,,,#.,,%%%%%%%%%%$#*>> ",
"                                                      ;<%%X,.######<#w....*,,%$.O%%%%%%%%%$#*>  ",
"                                                     >&1%%O*$,O######*#4O3O6O,%**,%%%%%%%$##O>  ",
"                                                     ;4%%%%$*OO1###########$#O*.%,%%%%%%%$#%.>  ",
"                                                     +,%%%%X%,.8#######.######.,O%%%%%%%%$$O>   ",
"                                                    X8X.%%%%,,,X36####.;7.#####*O%%%%%%%$#%;>   ",
"                                                   >91O*%%%,,,,,1,w#O###.>7.###*O%%%%%%%$#%;>   ",
"                                                   .3%%%%%%,,,,,,w.*w2#1#:>:##.%X%%%%%%$$$.>    ",
"                                                  >w*%%%%%*,,,,,,,,3.#31w.;>X#,$#%%%%%%$#%>>    ",
"                                                  .1%%%%%%*,,,,,,,,,,111....#,$$%%%%%%$$#%>>    ",
"                                                 :w%%%%%%%,,,,,,,,,,,,,,,,11O.%%%%%%%$$#%.>     ",
"                                                 .1%%%%%%,,,,,,,,,,,,,,,,*1%%%%%%%%%%$$#%>      ",
"                                                ow%%%%%%%,,,,,,,,,,,,,,,,1%%%%%%%%%%$$#%.>      ",
"                                               >91%%%%%%,,,,,,,,,,,,,,,,$1*%%%%%%%%%$$#%>       ",
"                                               @1%%%%%%%,,,,,,,,,,,,,,,%%O%%%%%%%%%%$#%.>       ",
"                                              >,%%%%%%%,,,,,,,,,,,,,,,%%%%%%%%%%%%%$$$&>        ",
"                                             >w,%%%%%%*,,,,,,,,,,,,,,%%%%%%%%%%%%%%$#%@>        ",
"                                             o1%%%%%%%,,,,,,,,,,,,,,%%%%%%%%%%%%%%$#$X>         ",
"                                            ;<%%%%%%%*,,,,,,,,,,,,,%%%%%%%%%%%%%%%$#%:>         ",
"                                           =8%%%%%%%,,,,,,,,,,,,,*%%%%%%%%%%%%%%%$#%o>          ",
"                                          +2,%%%%%%,,,,,,,,,,,,,*%%%%%%%%%%%%%%%$$#%;>          ",
"                                         >41%%%%%%%,,,,,,,,,,,,%%%%%%%%%%%%%%%%%$#%.>           ",
"                                        >9,%%%%%%%,,,,,,,,,,,,%%%%%%%%%%%%%%%%%$$#%>            ",
"                                        .31,%%%%%*,,,,,,,,,,,%%%%%%%%%%%%%%%%%%$#%.>            ",
"                                       @w1OO%%%%,,,,,,,,,,,,*%%%%%%%%%%%%%%%%%$##*>             ",
"                                      :8,$X*%%%*,,,,,,,,,,,*%%%%%%%%%%%%%%%%%%$#%.>             ",
"                                     @9,%%%%%%%,,,,,,,,,,,*%%%%%%%%%%%%*XX,%%$#%O>              ",
"                                    >11%%%%%%%,,,,,,,,,,,,%%%%%%%%%%%%%%$$%%$$#%;>              ",
"                                   >6,%%%%%%%,,,,,,,,,,,,%%%%%%%%%%%%%%%..,%$#%.>               ",
"                                   .3%%%%%%%%,,,,,,,,,,,%%%%%%%%%%%%%13%%%%$$#%>>               ",
"                                 >.<%%%%%%%%,,,,,,,,,,,,%%%%%%%%%%%%%O$%%%$$#%.>                ",
"                               >>.<%%%%%%%%*,,,,,,,,,,,%%%%%%%%%%%%%%O.%%%$$#*>                 ",
"                              >>=<%%%%%%%%%,,,,,,,,,,,,%%%%%%%%%%%%%%%%%%$$#%.>                 ",
"                             >>w<%%%%%%%%%,,,,,,,,,,,,*%%%%%%%%%%%%%%%%%%$$#&>                  ",
"                            >>91%%%%%%%%%%,,,,,,,,,,,,%%%%%%%%%%%%%%%%%%$$#%@>                  ",
"                            :w1%%%%%%%%%%,,,,,,,,,,,,,%%%%%%%%%%%%%%%%%%$#$%>                   ",
"                           >o1%%%%%%%%%%%,,,,,,,,,,,,%%%%%%%%%%%%%%%%%%$##%o>                   ",
"                          >.<%%%%%%%%%%%,,,,,,,,,,,,%%%%%%%%%%%%%%%%%%$$#%X>                    ",
"                         >+w%%%%%%%,1,%%,,,,,,,,,,%%%%%%%%%%%%%%%%%%%$$#%.>                     ",
"                         .41%%%%%%%.#X*,,,,,,,,,%%%%%%%%%%%%%%%%%%%%$$##$>>                     ",
"                        ;w11%%%%%%%%%,,,,,,,,,,%%%%%%%%%%%%%%%%%%%%%$$#%@>                      ",
"                       >61OO%%%%%%%%,,,,,,,,,,*%%%%%%%%%%%%%%%%%%%%$##*;>                       ",
"                       .1%#X%%%%%%%,,,,,,,,,,*%%%%%%%%%%%%%%%%%%%%$$#%X>                        ",
"                      .4%%%*%%%%%%,,,,,,,,,,%%%%%%%%%%%%%%%%%%%%%$$#%O>                         ",
"                     ;w1%%%%%%%%%*,,,,,,,,,%%%%%%%%%%%%%%%%%%%%%$$##$;>                         ",
"                    ;21%%%%%%1*%,,,,,,,,,*%%%%%%%%%%%%%%%%%%%%%$$$#%@>                          ",
"                    61%%%%%%,O#*,,,,,,,,*%%%%%%%%%%%%%%%%%%%%%%$$#%;>                           ",
"                   @1%%%%%%%X$$,,,,,,,,*%%%%%%%%%%%%%%%%%%%%%%$$#%X>                            ",
"                   9%%%%%%%%%.,,,,,,,*%%%%%%%%%%%%%%%%%%%%%%%$$##@>                             ",
"                  .3%%%%%%%%%%%,,,,,,%%%%%%%%%%%%%%%%%%%%%%%$$#%&>>                             ",
"                 :w*%%%%%%%%%%%%*,,%%%%%%%%%%%%%%%%%%%%%%%%$$#$X>>                              ",
"                 +1%%%%%%%%%%%%%%%%%%%%%%%%%%%%%%%%%%%%%%%$$#%*:>                               ",
"                 O%%%%%%%%%%%%%%%%%%%%%%%%%%%%%%%%%%%%%%%$$##%>>                                ",
"                :w%%%%%%%%%%%%%%%%%%%%%%%%%%%%%%%%%%%%%%$$#$%.>                                 ",
"                :1%%%%%%%%%%%%%%%%%%%%%%%%%%%%%%%%%%%*$$$#$%X>                                  ",
"               >.%%%%%%%%%1%%%%%%%%%%%%%%%%%%%%%%%%%1.,$#$%:>                                   ",
"               >.%%%.$,,%.$.%%%%%%%%%%%%%%%%%%%%%%%3$$O#%%;>                                    ",
"               >.%,.$$.,,.$$%%%%%%%%%%%%%%%%%%%%%*.$$$O%%>>                                     ",
"                >*,.$O,,,,,,,%%%%%%%%%%%%%%%%%%%%$%$.X%*>>                                      ",
"                :*,,,,,,,,,,,,%%%%%%%%%%%%%%%**%$$$*,%&>>                                       ",
"                >%,,,,,,,,,,,,,%%%%%%%%%%%%%,..*$##%%@>>                                        ",
"                >+*,,,,,,,,,,,,*%%%%%%%%%%%%.$$$##%&:>                                          ",
"                 :+,,,,,,,,,,,,,%%%%%%%%%%%%.$O%$%@>>                                           ",
"                 >;%,,,,,,,,,,,,*%%%%%%%%%$$$O,%+;>                                             ",
"                  >+$,,,,,,,,,,,,,%%%%%%%%$$##%=>>                                              ",
"                   >:&$,,,,,,,,,,,,,%%%%%$##%X:>                                                ",
"                    >;o,,,,,,,,,,,,,,%%%##%%&>>                                                 ",
"                     >>@&,,,,,,,,,,,,,,#%%&@>>                                                  ",
"                       >>;++*,,,,,,,**%%+;>>                                                    ",
"                         >>>;XXXXXXXX;;;>>                                                      ",
"                            >>>>>>>>>>                                                          "
};
